<svg xmlns="http://www.w3.org/2000/svg" xmlns:xlink="http://www.w3.org/1999/xlink" width="500" zoomAndPan="magnify" viewBox="0 0 375 374.999991" height="500" preserveAspectRatio="xMidYMid meet" version="1.0"><defs><g/><clipPath id="d3c379376a"><path d="M 162.433594 78.214844 L 168.433594 78.214844 L 168.433594 265.714844 L 162.433594 265.714844 Z M 162.433594 78.214844 " clip-rule="nonzero"/></clipPath><clipPath id="7eca437775"><path d="M 47 94.371094 L 165 94.371094 L 165 248 L 47 248 Z M 47 94.371094 " clip-rule="nonzero"/></clipPath><clipPath id="bce6bb404b"><path d="M 167.59375 99 L 325 99 L 325 249 L 167.59375 249 Z M 167.59375 99 " clip-rule="nonzero"/></clipPath></defs><rect x="-37.5" width="450" fill="#ffffff" y="-37.499999" height="449.999989" fill-opacity="1"/><rect x="-37.5" width="450" fill="#000000" y="-37.499999" height="449.999989" fill-opacity="1"/><g clip-path="url(#d3c379376a)"><path fill="#ffffff" d="M 162.433594 78.214844 L 168.433594 78.214844 L 168.433594 265.714844 L 162.433594 265.714844 Z M 162.433594 78.214844 " fill-opacity="1" fill-rule="nonzero"/></g><g clip-path="url(#7eca437775)"><path fill="#ffffff" d="M 115.582031 94.140625 C 135.015625 94.140625 149.945312 97.015625 160.371094 102.765625 C 170.800781 108.511719 176.019531 117.339844 176.019531 129.257812 C 176.019531 139.191406 171.722656 147.351562 163.136719 153.734375 C 154.558594 160.113281 142.179688 163.867188 126.007812 165.003906 L 126.007812 165.4375 C 140.910156 166.707031 152.46875 170.398438 160.691406 176.507812 C 168.921875 182.605469 173.039062 191.828125 173.039062 204.164062 C 173.039062 208.277344 173.109375 211.929688 173.253906 215.128906 C 173.394531 218.316406 173.609375 221.117188 173.898438 223.523438 C 174.460938 229.765625 175.519531 234.023438 177.082031 236.300781 C 178.640625 238.566406 181.265625 239.695312 184.953125 239.695312 C 186.089844 239.695312 187.367188 239.417969 188.78125 238.851562 C 190.203125 238.277344 191.488281 237.636719 192.625 236.929688 L 194.101562 240.128906 C 190.417969 242.96875 186.203125 244.878906 181.449219 245.863281 C 176.691406 246.855469 172.257812 247.355469 168.148438 247.355469 C 158.777344 247.355469 151.71875 244.410156 146.960938 238.527344 C 142.214844 232.648438 139.84375 222.539062 139.84375 208.210938 C 139.84375 199.835938 139.34375 193.027344 138.351562 187.777344 C 137.355469 182.527344 135.652344 178.449219 133.246094 175.539062 C 130.835938 172.628906 127.574219 170.644531 123.453125 169.585938 C 119.339844 168.523438 114.09375 167.988281 107.710938 167.988281 L 98.347656 167.988281 L 98.347656 240.128906 L 116.226562 240.128906 L 116.226562 243.957031 L 47.917969 243.957031 L 47.917969 240.128906 L 65.152344 240.128906 L 65.152344 97.96875 L 47.917969 97.96875 L 47.917969 94.140625 Z M 98.347656 164.160156 L 105.789062 164.160156 C 112.601562 164.160156 118.246094 163.589844 122.714844 162.453125 C 127.183594 161.316406 130.695312 159.402344 133.246094 156.703125 C 135.800781 154.007812 137.605469 150.5 138.675781 146.171875 C 139.738281 141.847656 140.273438 136.492188 140.273438 130.105469 C 140.273438 123.441406 139.914062 118.019531 139.199219 113.835938 C 138.492188 109.648438 137.175781 106.378906 135.261719 104.042969 C 133.355469 101.699219 130.765625 100.101562 127.496094 99.246094 C 124.238281 98.398438 120.054688 97.96875 114.953125 97.96875 L 98.347656 97.96875 Z M 98.347656 164.160156 " fill-opacity="1" fill-rule="nonzero"/></g><g clip-path="url(#bce6bb404b)"><path fill="#ffde59" d="M 185.324219 99.65625 L 185.324219 103.382812 L 172.902344 103.382812 L 205.199219 200.664062 L 205.609375 200.664062 L 223.414062 144.992188 L 209.960938 103.382812 L 195.046875 103.382812 L 195.046875 99.65625 L 259.226562 99.65625 L 259.226562 103.382812 L 243.078125 103.382812 L 274.535156 201.289062 L 274.949219 201.289062 L 298.550781 126.976562 C 299.789062 122.980469 300.683594 119.804688 301.234375 117.460938 C 301.789062 115.109375 302.066406 113.316406 302.066406 112.074219 C 302.066406 109.316406 300.960938 107.179688 298.75 105.667969 C 296.546875 104.144531 292.824219 103.382812 287.578125 103.382812 L 286.542969 103.382812 L 286.542969 99.65625 L 324.636719 99.65625 L 324.636719 103.382812 L 323.390625 103.382812 C 319.523438 103.382812 316.074219 104.972656 313.039062 108.148438 C 310.003906 111.316406 307.246094 116.695312 304.761719 124.28125 L 263.152344 248.695312 L 258.191406 248.695312 L 226.109375 151.8125 L 225.683594 151.8125 L 193.601562 248.695312 L 188.425781 248.695312 L 139.164062 103.382812 L 125.496094 103.382812 L 125.496094 99.65625 Z M 185.324219 99.65625 " fill-opacity="1" fill-rule="nonzero"/></g><g fill="#ffffff" fill-opacity="1"><g transform="translate(87.314197, 289.500449)"><g><path d="M 12.78125 -8.15625 L 16.171875 0 L 12.390625 0 L 9.40625 -7.515625 L 5.21875 -7.515625 L 5.21875 0 L 1.671875 0 L 1.671875 -18.796875 L 9.78125 -18.796875 C 10.96875 -18.796875 12.007812 -18.601562 12.90625 -18.21875 C 13.800781 -17.832031 14.5 -17.234375 15 -16.421875 C 15.5 -15.609375 15.75 -14.550781 15.75 -13.25 C 15.75 -12.019531 15.484375 -10.96875 14.953125 -10.09375 C 14.429688 -9.226562 13.707031 -8.582031 12.78125 -8.15625 Z M 9.296875 -15.625 L 5.21875 -15.625 L 5.21875 -10.625 L 9.296875 -10.625 C 10.242188 -10.625 10.96875 -10.835938 11.46875 -11.265625 C 11.96875 -11.691406 12.21875 -12.316406 12.21875 -13.140625 C 12.21875 -13.941406 11.960938 -14.554688 11.453125 -14.984375 C 10.941406 -15.410156 10.222656 -15.625 9.296875 -15.625 Z M 9.296875 -15.625 "/></g></g></g><g fill="#ffffff" fill-opacity="1"><g transform="translate(104.286242, 289.500449)"><g><path d="M 7.984375 0.265625 C 6.566406 0.265625 5.328125 -0.0390625 4.265625 -0.65625 C 3.210938 -1.269531 2.394531 -2.109375 1.8125 -3.171875 C 1.226562 -4.242188 0.9375 -5.460938 0.9375 -6.828125 C 0.9375 -7.734375 1.078125 -8.617188 1.359375 -9.484375 C 1.640625 -10.359375 2.066406 -11.144531 2.640625 -11.84375 C 3.210938 -12.539062 3.929688 -13.09375 4.796875 -13.5 C 5.671875 -13.914062 6.703125 -14.125 7.890625 -14.125 C 8.773438 -14.125 9.628906 -13.984375 10.453125 -13.703125 C 11.285156 -13.421875 12.03125 -12.988281 12.6875 -12.40625 C 13.34375 -11.820312 13.863281 -11.078125 14.25 -10.171875 C 14.632812 -9.273438 14.828125 -8.203125 14.828125 -6.953125 L 14.828125 -6.234375 L 4.390625 -6.234375 C 4.421875 -5.941406 4.484375 -5.648438 4.578125 -5.359375 C 4.679688 -5.066406 4.789062 -4.816406 4.90625 -4.609375 C 5.226562 -3.960938 5.664062 -3.460938 6.21875 -3.109375 C 6.769531 -2.765625 7.398438 -2.59375 8.109375 -2.59375 C 8.898438 -2.59375 9.5625 -2.796875 10.09375 -3.203125 C 10.625 -3.609375 11 -4.09375 11.21875 -4.65625 L 14.609375 -4.65625 C 14.347656 -3.769531 13.929688 -2.953125 13.359375 -2.203125 C 12.785156 -1.453125 12.050781 -0.851562 11.15625 -0.40625 C 10.269531 0.0390625 9.210938 0.265625 7.984375 0.265625 Z M 4.53125 -8.71875 L 11.4375 -8.71875 C 11.414062 -8.90625 11.367188 -9.113281 11.296875 -9.34375 C 11.222656 -9.570312 11.097656 -9.789062 10.921875 -10 C 10.609375 -10.5 10.191406 -10.867188 9.671875 -11.109375 C 9.148438 -11.359375 8.585938 -11.484375 7.984375 -11.484375 C 7.378906 -11.484375 6.820312 -11.359375 6.3125 -11.109375 C 5.8125 -10.867188 5.398438 -10.5 5.078125 -10 C 4.898438 -9.789062 4.769531 -9.570312 4.6875 -9.34375 C 4.613281 -9.113281 4.5625 -8.90625 4.53125 -8.71875 Z M 4.53125 -8.71875 "/></g></g></g><g fill="#ffffff" fill-opacity="1"><g transform="translate(120.051278, 289.500449)"><g><path d="M 3.171875 -15.34375 C 2.617188 -15.34375 2.140625 -15.515625 1.734375 -15.859375 C 1.335938 -16.210938 1.140625 -16.675781 1.140625 -17.25 C 1.140625 -17.8125 1.335938 -18.265625 1.734375 -18.609375 C 2.140625 -18.960938 2.617188 -19.140625 3.171875 -19.140625 C 3.734375 -19.140625 4.210938 -18.960938 4.609375 -18.609375 C 5.015625 -18.265625 5.21875 -17.8125 5.21875 -17.25 C 5.21875 -16.675781 5.015625 -16.210938 4.609375 -15.859375 C 4.210938 -15.515625 3.734375 -15.34375 3.171875 -15.34375 Z M 4.828125 0 L 1.5 0 L 1.5 -13.828125 L 4.828125 -13.828125 Z M 4.828125 0 "/></g></g></g><g fill="#ffffff" fill-opacity="1"><g transform="translate(126.40656, 289.500449)"><g><path d="M 4.828125 0 L 1.5 0 L 1.5 -13.828125 L 4.828125 -13.828125 L 4.828125 -12.078125 C 5.390625 -12.847656 5.972656 -13.378906 6.578125 -13.671875 C 7.179688 -13.972656 7.851562 -14.125 8.59375 -14.125 C 9.863281 -14.125 10.820312 -13.894531 11.46875 -13.4375 C 12.113281 -12.988281 12.59375 -12.441406 12.90625 -11.796875 C 13.1875 -11.191406 13.351562 -10.570312 13.40625 -9.9375 C 13.457031 -9.3125 13.484375 -8.648438 13.484375 -7.953125 L 13.484375 0 L 10.171875 0 L 10.171875 -8.015625 C 10.171875 -8.710938 10.113281 -9.28125 10 -9.71875 C 9.882812 -10.15625 9.710938 -10.503906 9.484375 -10.765625 C 9.085938 -11.179688 8.503906 -11.390625 7.734375 -11.390625 C 6.796875 -11.390625 6.097656 -11.109375 5.640625 -10.546875 C 5.359375 -10.210938 5.148438 -9.773438 5.015625 -9.234375 C 4.890625 -8.691406 4.828125 -7.960938 4.828125 -7.046875 Z M 4.828125 0 "/></g></g></g><g fill="#ffffff" fill-opacity="1"><g transform="translate(141.309444, 289.500449)"><g><path d="M 1.796875 -11.21875 L 1.796875 -12.9375 C 2.585938 -12.96875 3.210938 -13.164062 3.671875 -13.53125 C 4.128906 -13.90625 4.398438 -14.394531 4.484375 -15 C 4.503906 -15.113281 4.515625 -15.226562 4.515625 -15.34375 C 4.515625 -15.46875 4.515625 -15.585938 4.515625 -15.703125 C 4.242188 -15.335938 3.832031 -15.15625 3.28125 -15.15625 C 2.863281 -15.15625 2.484375 -15.320312 2.140625 -15.65625 C 1.796875 -16 1.625 -16.460938 1.625 -17.046875 C 1.625 -17.640625 1.816406 -18.125 2.203125 -18.5 C 2.585938 -18.882812 3.109375 -19.078125 3.765625 -19.078125 C 4.609375 -19.078125 5.242188 -18.769531 5.671875 -18.15625 C 6.097656 -17.550781 6.3125 -16.765625 6.3125 -15.796875 C 6.3125 -15.109375 6.164062 -14.421875 5.875 -13.734375 C 5.59375 -13.054688 5.117188 -12.484375 4.453125 -12.015625 C 3.796875 -11.554688 2.910156 -11.289062 1.796875 -11.21875 Z M 1.796875 -11.21875 "/></g></g></g><g fill="#ffffff" fill-opacity="1"><g transform="translate(148.970268, 289.500449)"><g><path d="M 7.484375 0.265625 C 6.429688 0.265625 5.429688 0.0976562 4.484375 -0.234375 C 3.535156 -0.566406 2.734375 -1.097656 2.078125 -1.828125 C 1.429688 -2.566406 1.023438 -3.507812 0.859375 -4.65625 L 4.140625 -4.65625 C 4.347656 -3.90625 4.738281 -3.332031 5.3125 -2.9375 C 5.894531 -2.539062 6.613281 -2.34375 7.46875 -2.34375 C 8.175781 -2.34375 8.757812 -2.476562 9.21875 -2.75 C 9.675781 -3.03125 9.90625 -3.425781 9.90625 -3.9375 C 9.90625 -4.351562 9.753906 -4.675781 9.453125 -4.90625 C 9.148438 -5.144531 8.75 -5.332031 8.25 -5.46875 C 7.757812 -5.601562 7.21875 -5.726562 6.625 -5.84375 C 6.03125 -5.957031 5.425781 -6.09375 4.8125 -6.25 C 4.195312 -6.414062 3.632812 -6.644531 3.125 -6.9375 C 2.613281 -7.226562 2.203125 -7.613281 1.890625 -8.09375 C 1.578125 -8.582031 1.421875 -9.210938 1.421875 -9.984375 C 1.421875 -10.953125 1.664062 -11.738281 2.15625 -12.34375 C 2.65625 -12.945312 3.3125 -13.394531 4.125 -13.6875 C 4.9375 -13.976562 5.820312 -14.125 6.78125 -14.125 C 8.382812 -14.125 9.726562 -13.710938 10.8125 -12.890625 C 11.894531 -12.078125 12.5625 -10.914062 12.8125 -9.40625 L 9.6875 -9.40625 C 9.488281 -10.164062 9.117188 -10.703125 8.578125 -11.015625 C 8.035156 -11.335938 7.425781 -11.5 6.75 -11.5 C 6.09375 -11.5 5.570312 -11.375 5.1875 -11.125 C 4.800781 -10.875 4.609375 -10.535156 4.609375 -10.109375 C 4.609375 -9.722656 4.753906 -9.421875 5.046875 -9.203125 C 5.347656 -8.992188 5.738281 -8.832031 6.21875 -8.71875 C 6.707031 -8.601562 7.226562 -8.488281 7.78125 -8.375 C 8.394531 -8.257812 9.015625 -8.125 9.640625 -7.96875 C 10.273438 -7.8125 10.859375 -7.585938 11.390625 -7.296875 C 11.929688 -7.015625 12.363281 -6.625 12.6875 -6.125 C 13.019531 -5.625 13.1875 -4.976562 13.1875 -4.1875 C 13.1875 -2.84375 12.679688 -1.765625 11.671875 -0.953125 C 10.671875 -0.140625 9.273438 0.265625 7.484375 0.265625 Z M 7.484375 0.265625 "/></g></g></g><g fill="#ffde59" fill-opacity="1"><g transform="translate(163.169661, 289.500449)"><g/></g></g><g fill="#ffde59" fill-opacity="1"><g transform="translate(169.771265, 289.500449)"><g><path d="M 10.59375 0 L 5.265625 0 L 0.375 -18.796875 L 4.09375 -18.796875 L 7.953125 -3.203125 L 11.453125 -18.796875 L 15.96875 -18.796875 L 19.46875 -3.171875 L 23.328125 -18.796875 L 27.0625 -18.796875 L 22.125 0 L 16.828125 0 L 13.703125 -14.5625 Z M 10.59375 0 "/></g></g></g><g fill="#ffde59" fill-opacity="1"><g transform="translate(197.163017, 289.500449)"><g><path d="M 8.015625 0.265625 C 6.628906 0.265625 5.398438 -0.0351562 4.328125 -0.640625 C 3.265625 -1.242188 2.429688 -2.09375 1.828125 -3.1875 C 1.234375 -4.28125 0.9375 -5.550781 0.9375 -7 C 0.9375 -8.394531 1.234375 -9.625 1.828125 -10.6875 C 2.429688 -11.757812 3.257812 -12.597656 4.3125 -13.203125 C 5.375 -13.816406 6.609375 -14.125 8.015625 -14.125 C 9.410156 -14.125 10.640625 -13.816406 11.703125 -13.203125 C 12.773438 -12.597656 13.609375 -11.757812 14.203125 -10.6875 C 14.804688 -9.625 15.109375 -8.394531 15.109375 -7 C 15.109375 -5.570312 14.8125 -4.3125 14.21875 -3.21875 C 13.625 -2.125 12.789062 -1.269531 11.71875 -0.65625 C 10.65625 -0.0390625 9.421875 0.265625 8.015625 0.265625 Z M 8.015625 -2.59375 C 9.097656 -2.59375 9.972656 -3 10.640625 -3.8125 C 11.316406 -4.632812 11.65625 -5.695312 11.65625 -7 C 11.65625 -7.820312 11.503906 -8.550781 11.203125 -9.1875 C 10.898438 -9.832031 10.472656 -10.335938 9.921875 -10.703125 C 9.378906 -11.078125 8.742188 -11.265625 8.015625 -11.265625 C 7.304688 -11.265625 6.671875 -11.082031 6.109375 -10.71875 C 5.546875 -10.351562 5.109375 -9.847656 4.796875 -9.203125 C 4.492188 -8.566406 4.34375 -7.832031 4.34375 -7 C 4.34375 -5.6875 4.6875 -4.625 5.375 -3.8125 C 6.0625 -3 6.941406 -2.59375 8.015625 -2.59375 Z M 8.015625 -2.59375 "/></g></g></g><g fill="#ffde59" fill-opacity="1"><g transform="translate(213.223643, 289.500449)"><g><path d="M 4.828125 0 L 1.5 0 L 1.5 -13.828125 L 4.828125 -13.828125 L 4.828125 -12.171875 C 5.359375 -12.890625 5.945312 -13.394531 6.59375 -13.6875 C 7.238281 -13.976562 7.960938 -14.125 8.765625 -14.125 L 9.171875 -14.125 L 9.171875 -10.921875 L 8.40625 -10.921875 C 7.84375 -10.921875 7.359375 -10.84375 6.953125 -10.6875 C 6.554688 -10.539062 6.21875 -10.335938 5.9375 -10.078125 C 5.570312 -9.710938 5.296875 -9.238281 5.109375 -8.65625 C 4.921875 -8.070312 4.828125 -7.320312 4.828125 -6.40625 Z M 4.828125 0 "/></g></g></g><g fill="#ffde59" fill-opacity="1"><g transform="translate(222.855093, 289.500449)"><g><path d="M 4.859375 0 L 1.53125 0 L 1.53125 -18.796875 L 4.859375 -18.796875 L 4.859375 -8.71875 L 9.90625 -13.828125 L 14.125 -13.828125 L 8.015625 -7.828125 L 14.5625 0 L 10.46875 0 L 4.859375 -6.875 Z M 4.859375 0 "/></g></g></g></svg>