<svg xmlns="http://www.w3.org/2000/svg" xmlns:xlink="http://www.w3.org/1999/xlink" width="500" zoomAndPan="magnify" viewBox="0 0 375 374.999991" height="500" preserveAspectRatio="xMidYMid meet" version="1.0"><defs><g/><clipPath id="13f8cbd297"><path d="M 187.769531 134.796875 L 317.25 134.796875 L 317.25 223 L 187.769531 223 Z M 187.769531 134.796875 " clip-rule="nonzero"/></clipPath></defs><rect x="-37.5" width="450" fill="#ffffff" y="-37.499999" height="449.999989" fill-opacity="1"/><rect x="-37.5" width="450" fill="#ffffff" y="-37.499999" height="449.999989" fill-opacity="1"/><g fill="#000000" fill-opacity="1"><g transform="translate(64.163119, 220.308838)"><g><path d="M 6.578125 -118.484375 L 97.609375 -118.484375 C 112.523438 -118.484375 123.554688 -115.253906 130.703125 -108.796875 C 137.847656 -102.335938 141.421875 -92.273438 141.421875 -78.609375 C 141.421875 -67.578125 139.035156 -58.988281 134.265625 -52.84375 C 129.503906 -46.695312 122.300781 -42.6875 112.65625 -40.8125 L 125.0625 -24.265625 C 130.195312 -17.367188 134.675781 -12.070312 138.5 -8.375 C 142.332031 -4.675781 146.691406 -1.882812 151.578125 0 L 107 0 L 63.1875 -61.5 L 91.203125 -61.5 C 98.222656 -61.5 103.363281 -62.875 106.625 -65.625 C 109.882812 -68.382812 111.515625 -72.835938 111.515625 -78.984375 C 111.515625 -85.128906 109.882812 -89.578125 106.625 -92.328125 C 103.363281 -95.085938 98.222656 -96.46875 91.203125 -96.46875 L 50.59375 -96.46875 L 50.59375 -22.1875 C 50.59375 -17.050781 51.03125 -13.101562 51.90625 -10.34375 C 52.78125 -7.582031 54.28125 -5.476562 56.40625 -4.03125 C 58.539062 -2.59375 61.425781 -1.25 65.0625 0 L 6.578125 0 C 10.210938 -1.25 13.0625 -2.59375 15.125 -4.03125 C 17.195312 -5.476562 18.671875 -7.582031 19.546875 -10.34375 C 20.429688 -13.101562 20.875 -17.050781 20.875 -22.1875 L 20.875 -96.28125 C 20.875 -101.425781 20.429688 -105.375 19.546875 -108.125 C 18.671875 -110.882812 17.195312 -113.015625 15.125 -114.515625 C 13.0625 -116.023438 10.210938 -117.347656 6.578125 -118.484375 Z M 6.578125 -118.484375 "/></g></g></g><g clip-path="url(#13f8cbd297)"><path fill="#e1c24e" d="M 233.277344 212.097656 L 238.921875 216.539062 C 253.199219 227.765625 274.191406 223.039062 282.203125 206.738281 L 317.519531 134.90625 L 302.980469 134.90625 C 291.859375 134.90625 281.710938 141.191406 276.839844 151.1875 L 253.550781 198.953125 C 251.855469 202.433594 249.375 205.464844 246.261719 207.765625 C 243.136719 210.074219 238.847656 212.050781 233.445312 211.898438 C 234.695312 210.320312 235.800781 208.632812 236.730469 206.738281 L 272.050781 134.90625 L 257.511719 134.90625 C 246.390625 134.90625 236.242188 141.191406 231.371094 151.1875 L 208.082031 198.953125 C 206.386719 202.433594 203.90625 205.464844 200.792969 207.765625 C 197.582031 210.136719 193.144531 212.160156 187.523438 211.878906 L 193.457031 216.539062 C 205.996094 226.402344 223.726562 223.90625 233.277344 212.097656 Z M 203.445312 165.398438 L 187.507812 134.804688 L 227.324219 134.816406 L 211.957031 165.339844 C 210.203125 168.820312 205.246094 168.855469 203.445312 165.398438 Z M 203.445312 165.398438 " fill-opacity="1" fill-rule="nonzero"/></g><g fill="#000000" fill-opacity="1"><g transform="translate(112.306067, 249.905213)"><g><path d="M 0.75 -12.703125 L 10.03125 -12.703125 C 13.007812 -12.703125 14.5 -11.359375 14.5 -8.671875 C 14.5 -6.179688 13.238281 -4.847656 10.71875 -4.671875 L 12.765625 -2.296875 C 13.179688 -1.796875 13.53125 -1.398438 13.8125 -1.109375 C 14.101562 -0.816406 14.382812 -0.582031 14.65625 -0.40625 C 14.925781 -0.238281 15.234375 -0.101562 15.578125 0 L 12.109375 0 L 7.046875 -6.203125 L 9.640625 -6.203125 C 10.585938 -6.203125 11.289062 -6.40625 11.75 -6.8125 C 12.207031 -7.226562 12.4375 -7.851562 12.4375 -8.6875 C 12.4375 -9.519531 12.207031 -10.132812 11.75 -10.53125 C 11.289062 -10.9375 10.585938 -11.140625 9.640625 -11.140625 L 4.453125 -11.140625 L 4.453125 -2.15625 C 4.453125 -1.644531 4.492188 -1.253906 4.578125 -0.984375 C 4.660156 -0.710938 4.816406 -0.507812 5.046875 -0.375 C 5.285156 -0.25 5.632812 -0.125 6.09375 0 L 0.75 0 C 1.207031 -0.125 1.550781 -0.25 1.78125 -0.375 C 2.019531 -0.507812 2.175781 -0.710938 2.25 -0.984375 C 2.332031 -1.253906 2.375 -1.644531 2.375 -2.15625 L 2.375 -10.546875 C 2.375 -11.054688 2.332031 -11.441406 2.25 -11.703125 C 2.175781 -11.972656 2.019531 -12.175781 1.78125 -12.3125 C 1.550781 -12.457031 1.207031 -12.585938 0.75 -12.703125 Z M 0.75 -12.703125 "/></g></g></g><g fill="#000000" fill-opacity="1"><g transform="translate(128.119466, 249.905213)"><g><path d="M 0.75 0 C 1.207031 -0.125 1.550781 -0.25 1.78125 -0.375 C 2.019531 -0.5 2.179688 -0.695312 2.265625 -0.96875 C 2.359375 -1.238281 2.40625 -1.628906 2.40625 -2.140625 L 2.40625 -10.5625 C 2.40625 -11.070312 2.359375 -11.460938 2.265625 -11.734375 C 2.179688 -12.003906 2.019531 -12.203125 1.78125 -12.328125 C 1.550781 -12.460938 1.207031 -12.585938 0.75 -12.703125 L 13.609375 -12.703125 L 13.609375 -9.375 C 13.492188 -9.851562 13.363281 -10.222656 13.21875 -10.484375 C 13.070312 -10.753906 12.859375 -10.9375 12.578125 -11.03125 C 12.304688 -11.132812 11.929688 -11.1875 11.453125 -11.1875 L 4.453125 -11.1875 L 4.453125 -7.09375 L 9.640625 -7.09375 C 10.035156 -7.09375 10.34375 -7.132812 10.5625 -7.21875 C 10.789062 -7.300781 10.96875 -7.445312 11.09375 -7.65625 C 11.21875 -7.875 11.335938 -8.1875 11.453125 -8.59375 L 11.453125 -4.109375 C 11.335938 -4.523438 11.21875 -4.835938 11.09375 -5.046875 C 10.96875 -5.265625 10.789062 -5.410156 10.5625 -5.484375 C 10.34375 -5.566406 10.035156 -5.609375 9.640625 -5.609375 L 4.453125 -5.609375 L 4.453125 -1.515625 L 12.328125 -1.515625 C 12.816406 -1.515625 13.195312 -1.5625 13.46875 -1.65625 C 13.75 -1.757812 13.960938 -1.945312 14.109375 -2.21875 C 14.265625 -2.488281 14.398438 -2.859375 14.515625 -3.328125 L 14.515625 0 Z M 0.75 0 "/></g></g></g><g fill="#000000" fill-opacity="1"><g transform="translate(143.469552, 249.905213)"><g><path d="M 0.75 0 C 1.207031 -0.125 1.550781 -0.25 1.78125 -0.375 C 2.019531 -0.507812 2.175781 -0.710938 2.25 -0.984375 C 2.332031 -1.253906 2.375 -1.644531 2.375 -2.15625 L 2.375 -10.546875 C 2.375 -11.054688 2.332031 -11.441406 2.25 -11.703125 C 2.175781 -11.972656 2.019531 -12.175781 1.78125 -12.3125 C 1.550781 -12.457031 1.207031 -12.585938 0.75 -12.703125 L 6.09375 -12.703125 C 5.632812 -12.585938 5.285156 -12.457031 5.046875 -12.3125 C 4.816406 -12.175781 4.660156 -11.972656 4.578125 -11.703125 C 4.492188 -11.441406 4.453125 -11.054688 4.453125 -10.546875 L 4.453125 -2.15625 C 4.453125 -1.644531 4.492188 -1.253906 4.578125 -0.984375 C 4.660156 -0.710938 4.816406 -0.507812 5.046875 -0.375 C 5.285156 -0.25 5.632812 -0.125 6.09375 0 Z M 0.75 0 "/></g></g></g><g fill="#000000" fill-opacity="1"><g transform="translate(150.298527, 249.905213)"><g><path d="M 0.75 0 C 1.207031 -0.125 1.550781 -0.25 1.78125 -0.375 C 2.019531 -0.507812 2.175781 -0.710938 2.25 -0.984375 C 2.332031 -1.253906 2.375 -1.644531 2.375 -2.15625 L 2.375 -10.546875 C 2.375 -11.054688 2.332031 -11.441406 2.25 -11.703125 C 2.175781 -11.972656 2.019531 -12.175781 1.78125 -12.3125 C 1.550781 -12.457031 1.207031 -12.585938 0.75 -12.703125 L 5 -12.703125 L 13.34375 -2.171875 L 13.34375 -10.546875 C 13.34375 -11.054688 13.300781 -11.441406 13.21875 -11.703125 C 13.132812 -11.972656 12.972656 -12.175781 12.734375 -12.3125 C 12.503906 -12.457031 12.160156 -12.585938 11.703125 -12.703125 L 17.046875 -12.703125 C 16.585938 -12.585938 16.238281 -12.457031 16 -12.3125 C 15.769531 -12.175781 15.613281 -11.972656 15.53125 -11.703125 C 15.457031 -11.441406 15.421875 -11.054688 15.421875 -10.546875 L 15.421875 -2.15625 C 15.421875 -1.644531 15.457031 -1.253906 15.53125 -0.984375 C 15.613281 -0.710938 15.769531 -0.507812 16 -0.375 C 16.238281 -0.25 16.585938 -0.125 17.046875 0 L 12.734375 0 L 4.453125 -10.421875 L 4.453125 -2.15625 C 4.453125 -1.644531 4.492188 -1.253906 4.578125 -0.984375 C 4.660156 -0.710938 4.816406 -0.507812 5.046875 -0.375 C 5.285156 -0.25 5.632812 -0.125 6.09375 0 Z M 0.75 0 "/></g></g></g><g fill="#000000" fill-opacity="1"><g transform="translate(168.065948, 249.905213)"><g><path d="M 1.203125 -11.625 C 1.203125 -12.457031 1.628906 -12.875 2.484375 -12.875 C 3.316406 -12.875 3.734375 -12.457031 3.734375 -11.625 C 3.734375 -10.875 3.609375 -10.234375 3.359375 -9.703125 C 3.109375 -9.179688 2.816406 -8.757812 2.484375 -8.4375 C 2.160156 -8.125 1.875 -7.894531 1.625 -7.75 C 1.375 -7.601562 1.25 -7.53125 1.25 -7.53125 C 1.25 -7.53125 1.335938 -7.640625 1.515625 -7.859375 C 1.691406 -8.078125 1.882812 -8.394531 2.09375 -8.8125 C 2.3125 -9.226562 2.472656 -9.742188 2.578125 -10.359375 L 2.484375 -10.359375 C 2.078125 -10.359375 1.757812 -10.46875 1.53125 -10.6875 C 1.3125 -10.914062 1.203125 -11.226562 1.203125 -11.625 Z M 1.203125 -11.625 "/></g></g></g><g fill="#000000" fill-opacity="1"><g transform="translate(172.92076, 249.905213)"><g><path d="M 7.140625 -12.875 C 8.328125 -12.875 9.34375 -12.800781 10.1875 -12.65625 C 11.039062 -12.519531 11.691406 -12.378906 12.140625 -12.234375 C 12.585938 -12.085938 12.8125 -12.015625 12.8125 -12.015625 L 12.8125 -9.4375 C 12.8125 -9.4375 12.753906 -9.519531 12.640625 -9.6875 C 12.535156 -9.863281 12.3125 -10.066406 11.96875 -10.296875 C 11.632812 -10.535156 11.132812 -10.742188 10.46875 -10.921875 C 10.007812 -11.023438 9.484375 -11.117188 8.890625 -11.203125 C 8.296875 -11.285156 7.644531 -11.328125 6.9375 -11.328125 C 5.5625 -11.328125 4.597656 -11.195312 4.046875 -10.9375 C 3.492188 -10.675781 3.21875 -10.226562 3.21875 -9.59375 C 3.21875 -9.070312 3.398438 -8.695312 3.765625 -8.46875 C 4.128906 -8.25 4.617188 -8.066406 5.234375 -7.921875 L 9.59375 -7.03125 C 10.875 -6.789062 11.804688 -6.390625 12.390625 -5.828125 C 12.972656 -5.273438 13.265625 -4.5 13.265625 -3.5 C 13.265625 -2.332031 12.8125 -1.425781 11.90625 -0.78125 C 11 -0.132812 9.484375 0.1875 7.359375 0.1875 C 5.972656 0.1875 4.820312 0.109375 3.90625 -0.046875 C 3 -0.203125 2.316406 -0.359375 1.859375 -0.515625 C 1.398438 -0.671875 1.171875 -0.75 1.171875 -0.75 L 1.171875 -3.3125 C 1.171875 -3.3125 1.242188 -3.210938 1.390625 -3.015625 C 1.535156 -2.816406 1.800781 -2.59375 2.1875 -2.34375 C 2.570312 -2.09375 3.109375 -1.890625 3.796875 -1.734375 C 4.265625 -1.640625 4.789062 -1.554688 5.375 -1.484375 C 5.96875 -1.410156 6.648438 -1.375 7.421875 -1.375 C 8.734375 -1.375 9.691406 -1.550781 10.296875 -1.90625 C 10.898438 -2.257812 11.203125 -2.785156 11.203125 -3.484375 C 11.203125 -3.992188 11.035156 -4.394531 10.703125 -4.6875 C 10.378906 -4.976562 9.847656 -5.207031 9.109375 -5.375 L 4.703125 -6.265625 C 3.546875 -6.484375 2.664062 -6.835938 2.0625 -7.328125 C 1.46875 -7.828125 1.171875 -8.578125 1.171875 -9.578125 C 1.171875 -10.710938 1.625 -11.546875 2.53125 -12.078125 C 3.445312 -12.609375 4.984375 -12.875 7.140625 -12.875 Z M 7.140625 -12.875 "/></g></g></g><g fill="#000000" fill-opacity="1"><g transform="translate(187.223333, 249.905213)"><g/></g></g><g fill="#000000" fill-opacity="1"><g transform="translate(192.984655, 249.905213)"><g><path d="M 0.1875 -12.703125 L 5.484375 -12.703125 C 4.972656 -12.609375 4.609375 -12.484375 4.390625 -12.328125 C 4.179688 -12.179688 4.078125 -11.957031 4.078125 -11.65625 C 4.078125 -11.519531 4.09375 -11.367188 4.125 -11.203125 C 4.164062 -11.046875 4.210938 -10.859375 4.265625 -10.640625 L 6.53125 -2.453125 L 9.234375 -12.703125 L 11.0625 -12.703125 L 13.765625 -2.453125 L 16.03125 -10.640625 C 16.09375 -10.859375 16.140625 -11.046875 16.171875 -11.203125 C 16.203125 -11.367188 16.21875 -11.519531 16.21875 -11.65625 C 16.21875 -11.957031 16.109375 -12.179688 15.890625 -12.328125 C 15.679688 -12.484375 15.320312 -12.609375 14.8125 -12.703125 L 20.109375 -12.703125 C 19.671875 -12.609375 19.328125 -12.484375 19.078125 -12.328125 C 18.835938 -12.179688 18.65625 -11.976562 18.53125 -11.71875 C 18.40625 -11.457031 18.273438 -11.097656 18.140625 -10.640625 L 15.234375 0 L 12.765625 0 L 10.140625 -9.890625 L 7.53125 0 L 5.0625 0 L 2.15625 -10.640625 C 2.03125 -11.097656 1.898438 -11.457031 1.765625 -11.71875 C 1.640625 -11.976562 1.453125 -12.179688 1.203125 -12.328125 C 0.960938 -12.484375 0.625 -12.609375 0.1875 -12.703125 Z M 0.1875 -12.703125 "/></g></g></g><g fill="#000000" fill-opacity="1"><g transform="translate(213.249989, 249.905213)"><g><path d="M 3.21875 -6.34375 C 3.21875 -4.695312 3.675781 -3.457031 4.59375 -2.625 C 5.519531 -1.789062 6.785156 -1.375 8.390625 -1.375 C 9.984375 -1.375 11.238281 -1.789062 12.15625 -2.625 C 13.082031 -3.457031 13.546875 -4.695312 13.546875 -6.34375 C 13.546875 -8 13.082031 -9.242188 12.15625 -10.078125 C 11.238281 -10.910156 9.984375 -11.328125 8.390625 -11.328125 C 6.785156 -11.328125 5.519531 -10.910156 4.59375 -10.078125 C 3.675781 -9.242188 3.21875 -8 3.21875 -6.34375 Z M 1.171875 -6.34375 C 1.171875 -8.519531 1.804688 -10.148438 3.078125 -11.234375 C 4.347656 -12.328125 6.117188 -12.875 8.390625 -12.875 C 10.671875 -12.875 12.445312 -12.328125 13.71875 -11.234375 C 14.988281 -10.148438 15.625 -8.519531 15.625 -6.34375 C 15.625 -4.164062 14.988281 -2.53125 13.71875 -1.4375 C 12.445312 -0.351562 10.671875 0.1875 8.390625 0.1875 C 6.117188 0.1875 4.347656 -0.351562 3.078125 -1.4375 C 1.804688 -2.53125 1.171875 -4.164062 1.171875 -6.34375 Z M 1.171875 -6.34375 "/></g></g></g><g fill="#000000" fill-opacity="1"><g transform="translate(230.010181, 249.905213)"><g><path d="M 0.75 -12.703125 L 10.03125 -12.703125 C 13.007812 -12.703125 14.5 -11.359375 14.5 -8.671875 C 14.5 -6.179688 13.238281 -4.847656 10.71875 -4.671875 L 12.765625 -2.296875 C 13.179688 -1.796875 13.53125 -1.398438 13.8125 -1.109375 C 14.101562 -0.816406 14.382812 -0.582031 14.65625 -0.40625 C 14.925781 -0.238281 15.234375 -0.101562 15.578125 0 L 12.109375 0 L 7.046875 -6.203125 L 9.640625 -6.203125 C 10.585938 -6.203125 11.289062 -6.40625 11.75 -6.8125 C 12.207031 -7.226562 12.4375 -7.851562 12.4375 -8.6875 C 12.4375 -9.519531 12.207031 -10.132812 11.75 -10.53125 C 11.289062 -10.9375 10.585938 -11.140625 9.640625 -11.140625 L 4.453125 -11.140625 L 4.453125 -2.15625 C 4.453125 -1.644531 4.492188 -1.253906 4.578125 -0.984375 C 4.660156 -0.710938 4.816406 -0.507812 5.046875 -0.375 C 5.285156 -0.25 5.632812 -0.125 6.09375 0 L 0.75 0 C 1.207031 -0.125 1.550781 -0.25 1.78125 -0.375 C 2.019531 -0.507812 2.175781 -0.710938 2.25 -0.984375 C 2.332031 -1.253906 2.375 -1.644531 2.375 -2.15625 L 2.375 -10.546875 C 2.375 -11.054688 2.332031 -11.441406 2.25 -11.703125 C 2.175781 -11.972656 2.019531 -12.175781 1.78125 -12.3125 C 1.550781 -12.457031 1.207031 -12.585938 0.75 -12.703125 Z M 0.75 -12.703125 "/></g></g></g><g fill="#000000" fill-opacity="1"><g transform="translate(245.82358, 249.905213)"><g><path d="M 0.75 -12.703125 L 6.09375 -12.703125 C 5.632812 -12.585938 5.285156 -12.457031 5.046875 -12.3125 C 4.816406 -12.175781 4.660156 -11.972656 4.578125 -11.703125 C 4.492188 -11.441406 4.453125 -11.054688 4.453125 -10.546875 L 4.453125 -5.421875 L 10.234375 -10.890625 C 10.796875 -11.429688 11.078125 -11.832031 11.078125 -12.09375 C 11.078125 -12.375 10.726562 -12.578125 10.03125 -12.703125 L 15.9375 -12.703125 C 15.550781 -12.628906 15.226562 -12.546875 14.96875 -12.453125 C 14.707031 -12.359375 14.441406 -12.207031 14.171875 -12 C 13.898438 -11.789062 13.539062 -11.476562 13.09375 -11.0625 L 9.15625 -7.28125 L 13.953125 -1.828125 C 14.328125 -1.429688 14.644531 -1.109375 14.90625 -0.859375 C 15.164062 -0.609375 15.429688 -0.414062 15.703125 -0.28125 C 15.984375 -0.15625 16.316406 -0.0625 16.703125 0 L 10.859375 0 C 11.617188 -0.15625 12 -0.394531 12 -0.71875 C 12 -0.96875 11.773438 -1.332031 11.328125 -1.8125 L 7.65625 -5.859375 L 4.453125 -2.78125 L 4.453125 -2.15625 C 4.453125 -1.644531 4.492188 -1.253906 4.578125 -0.984375 C 4.660156 -0.710938 4.816406 -0.507812 5.046875 -0.375 C 5.285156 -0.25 5.632812 -0.125 6.09375 0 L 0.75 0 C 1.207031 -0.125 1.550781 -0.25 1.78125 -0.375 C 2.019531 -0.507812 2.175781 -0.710938 2.25 -0.984375 C 2.332031 -1.253906 2.375 -1.644531 2.375 -2.15625 L 2.375 -10.546875 C 2.375 -11.054688 2.332031 -11.441406 2.25 -11.703125 C 2.175781 -11.972656 2.019531 -12.175781 1.78125 -12.3125 C 1.550781 -12.457031 1.207031 -12.585938 0.75 -12.703125 Z M 0.75 -12.703125 "/></g></g></g></svg>